<svg id="Capa_1" enable-background="new 0 0 512 512" height="512" viewBox="0 0 512 512" width="512" xmlns="http://www.w3.org/2000/svg" fill="#fff"><g id="XMLID_526_"><path id="XMLID_671_" d="m512 241h-22.528c-3.574-56.848-27.403-109.8-68.038-150.434-40.634-40.634-93.586-64.464-150.434-68.038v-22.528h-30v22.528c-56.848 3.574-109.8 27.403-150.434 68.038-40.635 40.634-64.464 93.586-68.038 150.434h-22.528v30h22.528c3.574 56.848 27.403 109.8 68.038 150.434 40.634 40.634 93.586 64.464 150.434 68.038v22.528h30v-22.528c56.848-3.574 109.8-27.403 150.434-68.038 40.634-40.634 64.464-93.586 68.038-150.434h22.528zm-256 218.959c-112.464 0-203.959-91.496-203.959-203.959s91.495-203.959 203.959-203.959c112.463 0 203.959 91.496 203.959 203.959s-91.496 203.959-203.959 203.959z"/><path id="XMLID_678_" d="m256 102.916c-84.411 0-153.083 68.673-153.083 153.084s68.672 153.084 153.083 153.084 153.084-68.673 153.084-153.084-68.673-153.084-153.084-153.084zm0 276.168c-67.869 0-123.083-55.215-123.083-123.084s55.214-123.084 123.083-123.084 123.084 55.215 123.084 123.084-55.215 123.084-123.084 123.084z"/><path id="XMLID_699_" d="m271 187.032v-24.199h-30v24.199c-26.901 5.846-48.122 27.067-53.968 53.968h-23.66v30h23.66c5.846 26.901 27.067 48.122 53.968 53.968v24.199h30v-24.199c26.901-5.846 48.122-27.067 53.968-53.968h23.66v-30h-23.66c-5.846-26.901-27.067-48.122-53.968-53.968zm-15 109.556c-22.38 0-40.588-18.208-40.588-40.588s18.208-40.588 40.588-40.588 40.588 18.208 40.588 40.588-18.208 40.588-40.588 40.588z"/><path id="XMLID_701_" d="m256 241c-7.846 0-15.363 6.899-15 15 .364 8.127 6.591 15 15 15 7.846 0 15.363-6.899 15-15-.364-8.127-6.591-15-15-15z"/></g></svg>